<?xml version="1.0" encoding="UTF-8" standalone="no"?>
<svg
   width="171"
   height="64"
   viewBox="0 0 171 64"
   fill="none"
   version="1.1"
   id="svg6"
   sodipodi:docname="logo-light.svg"
   inkscape:version="1.3.2 (091e20e, 2023-11-25, custom)"
   xmlns:inkscape="http://www.inkscape.org/namespaces/inkscape"
   xmlns:sodipodi="http://sodipodi.sourceforge.net/DTD/sodipodi-0.dtd"
   xmlns="http://www.w3.org/2000/svg"
   xmlns:svg="http://www.w3.org/2000/svg"
   xmlns:rdf="http://www.w3.org/1999/02/22-rdf-syntax-ns#"
   xmlns:cc="http://creativecommons.org/ns#"
   xmlns:dc="http://purl.org/dc/elements/1.1/">
  <sodipodi:namedview
     pagecolor="#ffffff"
     bordercolor="#666666"
     borderopacity="1"
     objecttolerance="10"
     gridtolerance="10"
     guidetolerance="10"
     inkscape:pageopacity="0"
     inkscape:pageshadow="2"
     inkscape:window-width="1366"
     inkscape:window-height="705"
     id="namedview8"
     showgrid="false"
     inkscape:zoom="4.6975048"
     inkscape:cx="128.25958"
     inkscape:cy="47.79133"
     inkscape:window-x="-8"
     inkscape:window-y="-8"
     inkscape:window-maximized="1"
     inkscape:current-layer="svg6"
     inkscape:showpageshadow="2"
     inkscape:pagecheckerboard="0"
     inkscape:deskcolor="#d1d1d1" />
  <metadata
     id="metadata12">
    <rdf:RDF>
      <cc:Work
         rdf:about="">
        <dc:format>image/svg+xml</dc:format>
        <dc:type
           rdf:resource="http://purl.org/dc/dcmitype/StillImage" />
      </cc:Work>
    </rdf:RDF>
  </metadata>
  <defs
     id="defs10">
    <g
       id="g4249" />
    <clipPath
       id="aee279f020">
      <path
         id="path4251"
         clip-rule="nonzero"
         d="M 28.28125 48.890625 L 395.703125 48.890625 L 395.703125 233.722656 L 28.28125 233.722656 Z M 28.28125 48.890625 " />
    </clipPath>
    <clipPath
       id="0c2a947d4c">
      <path
         id="path4254"
         clip-rule="nonzero"
         d="M 41.75 48.890625 L 382.480469 48.890625 C 386.050781 48.890625 389.476562 50.308594 392.003906 52.835938 C 394.527344 55.359375 395.949219 58.785156 395.949219 62.359375 L 395.949219 220.601562 C 395.949219 224.175781 394.527344 227.601562 392.003906 230.128906 C 389.476562 232.652344 386.050781 234.074219 382.480469 234.074219 L 41.75 234.074219 C 34.3125 234.074219 28.28125 228.042969 28.28125 220.601562 L 28.28125 62.359375 C 28.28125 54.921875 34.3125 48.890625 41.75 48.890625 Z M 41.75 48.890625 " />
    </clipPath>
    <clipPath
       id="aee279f020-6">
      <path
         style="clip-rule:nonzero"
         inkscape:connector-curvature="0"
         id="path4251-1"
         d="M 28.28125,48.890625 H 395.70312 V 233.72266 H 28.28125 Z m 0,0" />
    </clipPath>
    <clipPath
       id="0c2a947d4c-3">
      <path
         style="clip-rule:nonzero"
         inkscape:connector-curvature="0"
         id="path4254-9"
         d="m 41.75,48.890625 h 340.73047 c 3.57031,0 6.99609,1.417969 9.52344,3.945313 2.52343,2.523437 3.94531,5.949218 3.94531,9.523437 V 220.60156 c 0,3.57422 -1.42188,7 -3.94531,9.52735 -2.52735,2.52343 -5.95313,3.94531 -9.52344,3.94531 H 41.75 c -7.4375,0 -13.46875,-6.03125 -13.46875,-13.47266 V 62.359375 c 0,-7.4375 6.03125,-13.46875 13.46875,-13.46875 z m 0,0" />
    </clipPath>
  </defs>
  <g
     id="g4513"
     transform="matrix(0.34938004,0,0,0.34626032,32.57717,-17.122545)">
    <g
       id="g4263"
       clip-path="url(#aee279f020-6)"
       style="display:inline">
      <g
         id="g4261"
         clip-path="url(#0c2a947d4c-3)">
        <path
           style="opacity:1;fill:none;stroke:#fefefe;stroke-width:24;stroke-linecap:butt;stroke-linejoin:miter;stroke-miterlimit:4;stroke-opacity:1"
           inkscape:connector-curvature="0"
           transform="matrix(0.74831,0,0,0.74831,28.282575,48.889925)"
           d="M 17.997126,9.35616e-4 H 473.33059 c 4.77117,0 9.3492,1.894895384 12.7266,5.272298384 3.37218,3.372183 5.2723,7.950209 5.2723,12.726599 V 229.46599 c 0,4.77639 -1.90012,9.35442 -5.2723,12.73182 -3.3774,3.37218 -7.95543,5.2723 -12.7266,5.2723 H 17.997126 c -9.939066,0 -17.9988967,-8.05983 -17.9988967,-18.00412 V 17.999833 C -0.0017707,8.060767 8.05806,9.35616e-4 17.997126,9.35616e-4 Z m 0,0"
           stroke-miterlimit="4"
           id="path4259" />
      </g>
    </g>
    <g
       style="opacity:1;fill:#fefefe;fill-opacity:1"
       id="g4271">
      <g
         transform="translate(39.259748,152.20863)"
         id="g4269"
         style="fill:#ffffff">
        <g
           id="g4267"
           style="fill:#ffffff">
          <path
             inkscape:connector-curvature="0"
             d="M 62.25,-69.640625 38.703125,-24.25 V 0 H 24.734375 V -24.25 L 1.09375,-69.640625 H 16.859375 L 31.828125,-37.8125 46.6875,-69.640625 Z m 0,0"
             id="path4265"
             style="fill:#ffffff" />
        </g>
      </g>
    </g>
    <g
       style="opacity:1;fill:#fefefe;fill-opacity:1"
       id="g4279">
      <g
         transform="translate(102.71398,152.20863)"
         id="g4277"
         style="fill:#ffffff">
        <g
           id="g4275"
           style="fill:#ffffff">
          <path
             inkscape:connector-curvature="0"
             d="m 3.296875,-27.828125 c 0,-5.59375 1.109375,-10.550781 3.328125,-14.875 2.226562,-4.320313 5.253906,-7.644531 9.078125,-9.96875 3.832031,-2.332031 8.109375,-3.5 12.828125,-3.5 4.125,0 7.734375,0.835937 10.828125,2.5 3.09375,1.65625 5.570313,3.75 7.4375,6.28125 v -7.875 h 14.0625 V 0 h -14.0625 v -8.078125 c -1.804687,2.59375 -4.28125,4.742187 -7.4375,6.4375 -3.15625,1.6875 -6.796875,2.53125 -10.921875,2.53125 -4.65625,0 -8.902344,-1.191406 -12.734375,-3.578125 C 11.878906,-5.082031 8.851562,-8.457031 6.625,-12.8125 4.40625,-17.175781 3.296875,-22.179688 3.296875,-27.828125 Z m 43.5,0.1875 c 0,-3.382813 -0.667969,-6.289063 -2,-8.71875 -1.335937,-2.425781 -3.132813,-4.285156 -5.390625,-5.578125 -2.261719,-1.300781 -4.6875,-1.953125 -7.28125,-1.953125 -2.59375,0 -4.992188,0.632813 -7.1875,1.890625 -2.1875,1.261719 -3.964844,3.105469 -5.328125,5.53125 -1.367187,2.429688 -2.046875,5.308594 -2.046875,8.640625 0,3.324219 0.679688,6.234375 2.046875,8.734375 1.363281,2.492188 3.15625,4.402344 5.375,5.734375 2.226563,1.324219 4.609375,1.984375 7.140625,1.984375 2.59375,0 5.019531,-0.644531 7.28125,-1.9375 2.257812,-1.300781 4.054688,-3.164062 5.390625,-5.59375 1.332031,-2.425781 2,-5.335938 2,-8.734375 z m 0,0"
             id="path4273"
             style="fill:#ffffff" />
        </g>
      </g>
    </g>
    <g
       style="opacity:1;fill:#fefefe;fill-opacity:1"
       id="g4287">
      <g
         transform="translate(170.35857,152.20863)"
         id="g4285"
         style="fill:#ffffff">
        <g
           id="g4283"
           style="fill:#ffffff">
          <path
             inkscape:connector-curvature="0"
             d="m 37.515625,-56.0625 c 6.582031,0 11.898437,2.078125 15.953125,6.234375 4.0625,4.15625 6.09375,9.960937 6.09375,17.40625 V 0 H 45.59375 v -30.53125 c 0,-4.382812 -1.101562,-7.757812 -3.296875,-10.125 -2.1875,-2.363281 -5.179687,-3.546875 -8.96875,-3.546875 -3.867187,0 -6.914063,1.183594 -9.140625,3.546875 -2.230469,2.367188 -3.34375,5.742188 -3.34375,10.125 V 0 H 6.890625 V -55.265625 H 20.84375 v 6.875 c 1.863281,-2.394531 4.242188,-4.269531 7.140625,-5.625 2.894531,-1.363281 6.070313,-2.046875 9.53125,-2.046875 z m 0,0"
             id="path4281"
             style="fill:#ffffff" />
        </g>
      </g>
    </g>
    <g
       style="opacity:1;fill:#fefefe;fill-opacity:1"
       id="g4295">
      <g
         transform="translate(236.30706,152.20863)"
         id="g4293"
         style="fill:#ffffff">
        <g
           id="g4291"
           style="fill:#ffffff">
          <path
             inkscape:connector-curvature="0"
             d="m 28.53125,-56.171875 c 4.125,0 7.75,0.820313 10.875,2.453125 3.125,1.625 5.585938,3.734375 7.390625,6.328125 v -7.875 h 14.0625 V 0.40625 c 0,5.113281 -1.03125,9.679688 -3.09375,13.703125 -2.0625,4.03125 -5.15625,7.222656 -9.28125,9.578125 -4.125,2.363281 -9.117187,3.546875 -14.96875,3.546875 -7.84375,0 -14.277344,-1.828125 -19.296875,-5.484375 C 9.195312,18.09375 6.351562,13.101562 5.6875,6.78125 h 13.859375 c 0.738281,2.53125 2.320313,4.539062 4.75,6.03125 2.425781,1.5 5.367187,2.25 8.828125,2.25 4.050781,0 7.34375,-1.214844 9.875,-3.640625 C 45.53125,8.992188 46.796875,5.320312 46.796875,0.40625 V -8.1875 c -1.804687,2.59375 -4.28125,4.757812 -7.4375,6.484375 -3.15625,1.7265625 -6.765625,2.59375 -10.828125,2.59375 -4.65625,0 -8.917969,-1.191406 -12.78125,-3.578125 -3.855469,-2.394531 -6.898438,-5.769531 -9.125,-10.125 -2.21875,-4.363281 -3.328125,-9.367188 -3.328125,-15.015625 0,-5.59375 1.109375,-10.550781 3.328125,-14.875 2.226562,-4.320313 5.253906,-7.644531 9.078125,-9.96875 3.832031,-2.332031 8.109375,-3.5 12.828125,-3.5 z m 18.265625,28.53125 c 0,-3.382813 -0.667969,-6.289063 -2,-8.71875 -1.335937,-2.425781 -3.132813,-4.285156 -5.390625,-5.578125 -2.261719,-1.300781 -4.6875,-1.953125 -7.28125,-1.953125 -2.59375,0 -4.992188,0.632813 -7.1875,1.890625 -2.1875,1.261719 -3.964844,3.105469 -5.328125,5.53125 -1.367187,2.429688 -2.046875,5.308594 -2.046875,8.640625 0,3.324219 0.679688,6.234375 2.046875,8.734375 1.363281,2.492188 3.15625,4.402344 5.375,5.734375 2.226563,1.324219 4.609375,1.984375 7.140625,1.984375 2.59375,0 5.019531,-0.644531 7.28125,-1.9375 2.257812,-1.300781 4.054688,-3.164062 5.390625,-5.59375 1.332031,-2.425781 2,-5.335938 2,-8.734375 z m 0,0"
             id="path4289"
             style="fill:#ffffff" />
        </g>
      </g>
    </g>
    <g
       style="opacity:1;fill:#fefefe;fill-opacity:1"
       id="g4303">
      <g
         transform="translate(303.95166,152.20863)"
         id="g4301"
         style="fill:#ffffff">
        <g
           id="g4299"
           style="fill:#ffffff">
          <path
             inkscape:connector-curvature="0"
             d="M 9.671875,-69.640625 H 24.34375 L 13.5625,-44.5 H 3.984375 Z m 0,0"
             id="path4297"
             style="fill:#ffffff" />
        </g>
      </g>
    </g>
    <g
       style="opacity:1;fill:#fefefe;fill-opacity:1"
       id="g4311">
      <g
         transform="translate(331.38863,152.20863)"
         id="g4309"
         style="fill:#ffffff">
        <g
           id="g4307"
           style="fill:#ffffff">
          <path
             inkscape:connector-curvature="0"
             d="m 28.03125,0.890625 c -4.523438,0 -8.578125,-0.8125 -12.171875,-2.4375 -3.59375,-1.625 -6.4375,-3.832031 -8.53125,-6.625 -2.09375,-2.800781 -3.242187,-5.894531 -3.4375,-9.28125 h 14.0625 c 0.269531,2.125 1.316406,3.886719 3.140625,5.28125 1.832031,1.398437 4.113281,2.09375 6.84375,2.09375 2.65625,0 4.734375,-0.53125 6.234375,-1.59375 1.5,-1.0625 2.25,-2.425781 2.25,-4.09375 0,-1.789063 -0.917969,-3.132813 -2.75,-4.03125 -1.835937,-0.90625 -4.746094,-1.890625 -8.734375,-2.953125 -4.125,-1 -7.5,-2.03125 -10.125,-3.09375 -2.625,-1.0625 -4.886719,-2.6875 -6.78125,-4.875 -1.898438,-2.195312 -2.84375,-5.160156 -2.84375,-8.890625 0,-3.0625 0.878906,-5.851563 2.640625,-8.375 1.757813,-2.53125 4.285156,-4.523437 7.578125,-5.984375 3.300781,-1.46875 7.175781,-2.203125 11.625,-2.203125 6.582031,0 11.835938,1.648437 15.765625,4.9375 3.925781,3.292969 6.085937,7.734375 6.484375,13.328125 H 35.921875 c -0.210937,-2.195312 -1.125,-3.941406 -2.75,-5.234375 -1.625,-1.300781 -3.804687,-1.953125 -6.53125,-1.953125 -2.53125,0 -4.480469,0.46875 -5.84375,1.40625 -1.367187,0.929688 -2.046875,2.21875 -2.046875,3.875 0,1.867188 0.929688,3.28125 2.796875,4.25 1.863281,0.960938 4.757813,1.9375 8.6875,2.9375 3.988281,1 7.28125,2.03125 9.875,3.09375 2.59375,1.0625 4.835937,2.710938 6.734375,4.9375 1.894531,2.230469 2.875,5.171875 2.9375,8.828125 0,3.199219 -0.882812,6.0625 -2.640625,8.59375 C 45.378906,-4.648438 42.851562,-2.675781 39.5625,-1.25 36.269531,0.175781 32.425781,0.890625 28.03125,0.890625 Z m 0,0"
             id="path4305"
             style="fill:#ffffff" />
        </g>
      </g>
    </g>
    <g
       style="opacity:1;fill:#fefefe;fill-opacity:1"
       id="g4319">
      <g
         transform="translate(59.312112,214.56786)"
         id="g4317"
         style="fill:#ffffff">
        <g
           id="g4315"
           style="fill:#ffffff">
          <path
             inkscape:connector-curvature="0"
             d="M 25.859375,-27.859375 V 0 h -5.59375 V -11.859375 H 8.34375 V 0 H 2.75 v -27.859375 h 5.59375 v 11.453125 h 11.921875 v -11.453125 z m 0,0"
             id="path4313"
             style="fill:#ffffff" />
        </g>
      </g>
    </g>
    <g
       style="opacity:1;fill:#fefefe;fill-opacity:1"
       id="g4327">
      <g
         transform="translate(87.924639,214.56786)"
         id="g4325"
         style="fill:#ffffff">
        <g
           id="g4323"
           style="fill:#ffffff">
          <path
             inkscape:connector-curvature="0"
             d="M 19.828125,-5.3125 H 8.734375 L 6.90625,0 h -5.875 L 11.046875,-27.890625 H 17.5625 L 27.578125,0 h -5.90625 z M 18.3125,-9.78125 14.28125,-21.421875 10.25,-9.78125 Z m 0,0"
             id="path4321"
             style="fill:#ffffff" />
        </g>
      </g>
    </g>
    <g
       style="opacity:1;fill:#fefefe;fill-opacity:1"
       id="g4335">
      <g
         transform="translate(116.49726,214.56786)"
         id="g4333"
         style="fill:#ffffff">
        <g
           id="g4331"
           style="fill:#ffffff">
          <path
             inkscape:connector-curvature="0"
             d="M 8.34375,-27.859375 V 0 H 2.75 v -27.859375 z m 0,0"
             id="path4329"
             style="fill:#ffffff" />
        </g>
      </g>
    </g>
    <g
       style="opacity:1;fill:#fefefe;fill-opacity:1"
       id="g4343">
      <g
         transform="translate(127.5911,214.56786)"
         id="g4341"
         style="fill:#ffffff">
        <g
           id="g4339"
           style="fill:#ffffff">
          <path
             inkscape:connector-curvature="0"
             d="m 17.125,0 -6.15625,-10.859375 h -2.625 V 0 H 2.75 v -27.859375 h 10.453125 c 2.15625,0 3.988281,0.382813 5.5,1.140625 1.519531,0.761719 2.660156,1.789062 3.421875,3.078125 0.757812,1.292969 1.140625,2.734375 1.140625,4.328125 0,1.835938 -0.53125,3.492188 -1.59375,4.96875 -1.0625,1.480469 -2.648437,2.496094 -4.75,3.046875 L 23.578125,0 Z M 8.34375,-15.046875 h 4.671875 c 1.507813,0 2.632813,-0.363281 3.375,-1.09375 0.75,-0.726563 1.125,-1.742187 1.125,-3.046875 0,-1.28125 -0.375,-2.269531 -1.125,-2.96875 -0.742187,-0.707031 -1.867187,-1.0625 -3.375,-1.0625 H 8.34375 Z m 0,0"
             id="path4337"
             style="fill:#ffffff" />
        </g>
      </g>
    </g>
    <g
       style="opacity:1;fill:#fefefe;fill-opacity:1"
       id="g4349">
      <g
         transform="translate(153.17078,214.56786)"
         id="g4347"
         style="fill:#ffffff">
        <g
           id="g4345"
           style="fill:#ffffff" />
      </g>
    </g>
    <g
       style="opacity:1;fill:#fefefe;fill-opacity:1"
       id="g4357">
      <g
         transform="translate(162.66838,214.56786)"
         id="g4355"
         style="fill:#ffffff">
        <g
           id="g4353"
           style="fill:#ffffff">
          <path
             inkscape:connector-curvature="0"
             d="m 1.3125,-11.140625 c 0,-2.226563 0.441406,-4.207031 1.328125,-5.9375 0.894531,-1.726563 2.109375,-3.054687 3.640625,-3.984375 1.53125,-0.9375 3.238281,-1.40625 5.125,-1.40625 1.65625,0 3.097656,0.335938 4.328125,1 1.238281,0.667969 2.234375,1.507812 2.984375,2.515625 v -3.15625 h 5.625 V 0 h -5.625 V -3.234375 C 18,-2.191406 17.003906,-1.332031 15.734375,-0.65625 14.472656,0.0195312 13.019531,0.359375 11.375,0.359375 c -1.867188,0 -3.5625,-0.476563 -5.09375,-1.4375 C 4.75,-2.035156 3.535156,-3.382812 2.640625,-5.125 1.753906,-6.863281 1.3125,-8.867188 1.3125,-11.140625 Z m 17.40625,0.09375 c 0,-1.363281 -0.265625,-2.53125 -0.796875,-3.5 -0.53125,-0.96875 -1.25,-1.710937 -2.15625,-2.234375 -0.90625,-0.519531 -1.882813,-0.78125 -2.921875,-0.78125 -1.03125,0 -1.992188,0.257812 -2.875,0.765625 -0.875,0.5 -1.585938,1.242187 -2.125,2.21875 -0.542969,0.96875 -0.8125,2.117187 -0.8125,3.4375 0,1.335937 0.269531,2.5 0.8125,3.5 0.539062,1 1.253906,1.765625 2.140625,2.296875 0.894531,0.53125 1.847656,0.796875 2.859375,0.796875 1.039062,0 2.015625,-0.257813 2.921875,-0.78125 0.90625,-0.519531 1.625,-1.265625 2.15625,-2.234375 0.53125,-0.96875 0.796875,-2.128906 0.796875,-3.484375 z m 0,0"
             id="path4351"
             style="fill:#ffffff" />
        </g>
      </g>
    </g>
    <g
       style="opacity:1;fill:#fefefe;fill-opacity:1"
       id="g4365">
      <g
         transform="translate(189.72457,214.56786)"
         id="g4363"
         style="fill:#ffffff">
        <g
           id="g4361"
           style="fill:#ffffff">
          <path
             inkscape:connector-curvature="0"
             d="m 15,-22.421875 c 2.632812,0 4.765625,0.835937 6.390625,2.5 1.625,1.65625 2.4375,3.976563 2.4375,6.953125 V 0 h -5.59375 v -12.21875 c 0,-1.75 -0.4375,-3.09375 -1.3125,-4.03125 -0.875,-0.945312 -2.074219,-1.421875 -3.59375,-1.421875 -1.542969,0 -2.761719,0.476563 -3.65625,1.421875 -0.886719,0.9375 -1.328125,2.28125 -1.328125,4.03125 V 0 H 2.75 v -22.109375 h 5.59375 v 2.75 c 0.738281,-0.957031 1.6875,-1.707031 2.84375,-2.25 1.15625,-0.539063 2.425781,-0.8125 3.8125,-0.8125 z m 0,0"
             id="path4359"
             style="fill:#ffffff" />
        </g>
      </g>
    </g>
    <g
       style="opacity:1;fill:#fefefe;fill-opacity:1"
       id="g4373">
      <g
         transform="translate(216.10237,214.56786)"
         id="g4371"
         style="fill:#ffffff">
        <g
           id="g4369"
           style="fill:#ffffff">
          <path
             inkscape:connector-curvature="0"
             d="m 1.3125,-11.140625 c 0,-2.226563 0.441406,-4.207031 1.328125,-5.9375 0.894531,-1.726563 2.113281,-3.054687 3.65625,-3.984375 1.550781,-0.9375 3.269531,-1.40625 5.15625,-1.40625 1.4375,0 2.804687,0.3125 4.109375,0.9375 1.300781,0.625 2.335938,1.460938 3.109375,2.5 v -10.5 H 24.34375 V 0 h -5.671875 v -3.265625 c -0.6875,1.085937 -1.65625,1.960937 -2.90625,2.625 -1.25,0.6640625 -2.703125,1 -4.359375,1 -1.855469,0 -3.558594,-0.476563 -5.109375,-1.4375 C 4.753906,-2.035156 3.535156,-3.382812 2.640625,-5.125 1.753906,-6.863281 1.3125,-8.867188 1.3125,-11.140625 Z m 17.40625,0.09375 c 0,-1.363281 -0.265625,-2.53125 -0.796875,-3.5 -0.53125,-0.96875 -1.25,-1.710937 -2.15625,-2.234375 -0.90625,-0.519531 -1.882813,-0.78125 -2.921875,-0.78125 -1.03125,0 -1.992188,0.257812 -2.875,0.765625 -0.875,0.5 -1.585938,1.242187 -2.125,2.21875 -0.542969,0.96875 -0.8125,2.117187 -0.8125,3.4375 0,1.335937 0.269531,2.5 0.8125,3.5 0.539062,1 1.253906,1.765625 2.140625,2.296875 0.894531,0.53125 1.847656,0.796875 2.859375,0.796875 1.039062,0 2.015625,-0.257813 2.921875,-0.78125 0.90625,-0.519531 1.625,-1.265625 2.15625,-2.234375 0.53125,-0.96875 0.796875,-2.128906 0.796875,-3.484375 z m 0,0"
             id="path4367"
             style="fill:#ffffff" />
        </g>
      </g>
    </g>
    <g
       style="opacity:1;fill:#fefefe;fill-opacity:1"
       id="g4379">
      <g
         transform="translate(243.15856,214.56786)"
         id="g4377"
         style="fill:#ffffff">
        <g
           id="g4375"
           style="fill:#ffffff" />
      </g>
    </g>
    <g
       style="opacity:1;fill:#fefefe;fill-opacity:1"
       id="g4387">
      <g
         transform="translate(252.65615,214.56786)"
         id="g4385"
         style="fill:#ffffff">
        <g
           id="g4383"
           style="fill:#ffffff">
          <path
             inkscape:connector-curvature="0"
             d="m 12.375,0.28125 c -1.949219,0 -3.703125,-0.3320312 -5.265625,-1 -1.554687,-0.664062 -2.78125,-1.625 -3.6875,-2.875 C 2.523438,-4.84375 2.0625,-6.316406 2.03125,-8.015625 h 5.984375 c 0.082031,1.136719 0.488281,2.039063 1.21875,2.703125 0.726563,0.667969 1.734375,1 3.015625,1 1.300781,0 2.320312,-0.3125 3.0625,-0.9375 0.75,-0.625 1.125,-1.441406 1.125,-2.453125 0,-0.820313 -0.257812,-1.5 -0.765625,-2.03125 -0.5,-0.53125 -1.132813,-0.945313 -1.890625,-1.25 -0.75,-0.3125 -1.792969,-0.65625 -3.125,-1.03125 -1.8125,-0.53125 -3.289062,-1.050781 -4.421875,-1.5625 -1.125,-0.519531 -2.09375,-1.304687 -2.90625,-2.359375 -0.8125,-1.050781 -1.21875,-2.457031 -1.21875,-4.21875 0,-1.644531 0.410156,-3.078125 1.234375,-4.296875 0.832031,-1.226563 1.992188,-2.164063 3.484375,-2.8125 1.488281,-0.65625 3.191406,-0.984375 5.109375,-0.984375 2.863281,0 5.191406,0.699219 6.984375,2.09375 1.800781,1.398438 2.796875,3.34375 2.984375,5.84375 h -6.140625 c -0.05469,-0.957031 -0.460937,-1.75 -1.21875,-2.375 -0.761719,-0.625 -1.765625,-0.9375 -3.015625,-0.9375 -1.09375,0 -1.96875,0.28125 -2.625,0.84375 -0.648438,0.554688 -0.96875,1.359375 -0.96875,2.421875 0,0.75 0.242188,1.371094 0.734375,1.859375 0.5,0.492188 1.113281,0.890625 1.84375,1.203125 0.726563,0.304687 1.757813,0.65625 3.09375,1.0625 1.8125,0.53125 3.285156,1.0625 4.421875,1.59375 1.144531,0.53125 2.128906,1.328125 2.953125,2.390625 0.832031,1.0625 1.25,2.460938 1.25,4.1875 0,1.492188 -0.390625,2.875 -1.171875,4.15625 -0.773438,1.273438 -1.902344,2.289062 -3.390625,3.046875 C 16.179688,-0.0976562 14.414062,0.28125 12.375,0.28125 Z m 0,0"
             id="path4381"
             style="fill:#ffffff" />
        </g>
      </g>
    </g>
    <g
       style="opacity:1;fill:#fefefe;fill-opacity:1"
       id="g4395">
      <g
         transform="translate(276.95884,214.56786)"
         id="g4393"
         style="fill:#ffffff">
        <g
           id="g4391"
           style="fill:#ffffff">
          <path
             inkscape:connector-curvature="0"
             d="m 21.703125,-27.859375 v 4.515625 H 14.28125 V 0 H 8.703125 V -23.34375 H 1.28125 v -4.515625 z m 0,0"
             id="path4389"
             style="fill:#ffffff" />
        </g>
      </g>
    </g>
    <g
       style="opacity:1;fill:#fefefe;fill-opacity:1"
       id="g4403">
      <g
         transform="translate(299.98455,214.56786)"
         id="g4401"
         style="fill:#ffffff">
        <g
           id="g4399"
           style="fill:#ffffff">
          <path
             inkscape:connector-curvature="0"
             d="m 24.90625,-27.859375 -9.421875,18.15625 V 0 H 9.890625 V -9.703125 L 0.4375,-27.859375 H 6.75 l 5.984375,12.734375 5.9375,-12.734375 z m 0,0"
             id="path4397"
             style="fill:#ffffff" />
        </g>
      </g>
    </g>
    <g
       style="opacity:1;fill:#fefefe;fill-opacity:1"
       id="g4411">
      <g
         transform="translate(325.3647,214.56786)"
         id="g4409"
         style="fill:#ffffff">
        <g
           id="g4407"
           style="fill:#ffffff">
          <path
             inkscape:connector-curvature="0"
             d="m 8.34375,-4.421875 h 9.171875 V 0 H 2.75 v -27.859375 h 5.59375 z m 0,0"
             id="path4405"
             style="fill:#ffffff" />
        </g>
      </g>
    </g>
    <g
       style="opacity:1;fill:#fefefe;fill-opacity:1"
       id="g4419">
      <g
         transform="translate(343.6815,214.56786)"
         id="g4417"
         style="fill:#ffffff">
        <g
           id="g4415"
           style="fill:#ffffff">
          <path
             inkscape:connector-curvature="0"
             d="m 8.34375,-23.34375 v 6.984375 h 9.375 v 4.421875 h -9.375 v 7.390625 H 18.921875 V 0 H 2.75 v -27.890625 h 16.171875 v 4.546875 z m 0,0"
             id="path4413"
             style="fill:#ffffff" />
        </g>
      </g>
    </g>
  </g>
</svg>
